<svg width="16" height="16" viewBox="0 0 16 16" fill="none" xmlns="http://www.w3.org/2000/svg">
<path fill-rule="evenodd" clip-rule="evenodd" d="M7.9935 1.33398C4.3135 1.33398 1.3335 4.32065 1.3335 8.00065C1.3335 11.6807 4.3135 14.6673 7.9935 14.6673C11.6802 14.6673 14.6668 11.6807 14.6668 8.00065C14.6668 4.32065 11.6802 1.33398 7.9935 1.33398ZM8.66683 8.66732V4.66732H7.3335V8.66732H8.66683ZM8.66683 11.334V10.0007H7.3335V11.334H8.66683ZM2.66683 8.00065C2.66683 10.9473 5.0535 13.334 8.00016 13.334C10.9468 13.334 13.3335 10.9473 13.3335 8.00065C13.3335 5.05398 10.9468 2.66732 8.00016 2.66732C5.0535 2.66732 2.66683 5.05398 2.66683 8.00065Z" fill="#DB362A"/>
<mask id="mask0_1699_39335" style="mask-type:luminance" maskUnits="userSpaceOnUse" x="1" y="1" width="14" height="14">
<path fill-rule="evenodd" clip-rule="evenodd" d="M7.9935 1.33398C4.3135 1.33398 1.3335 4.32065 1.3335 8.00065C1.3335 11.6807 4.3135 14.6673 7.9935 14.6673C11.6802 14.6673 14.6668 11.6807 14.6668 8.00065C14.6668 4.32065 11.6802 1.33398 7.9935 1.33398ZM8.66683 8.66732V4.66732H7.3335V8.66732H8.66683ZM8.66683 11.334V10.0007H7.3335V11.334H8.66683ZM2.66683 8.00065C2.66683 10.9473 5.0535 13.334 8.00016 13.334C10.9468 13.334 13.3335 10.9473 13.3335 8.00065C13.3335 5.05398 10.9468 2.66732 8.00016 2.66732C5.0535 2.66732 2.66683 5.05398 2.66683 8.00065Z" fill="white"/>
</mask>
<g mask="url(#mask0_1699_39335)">
</g>
</svg>
