<?xml version="1.0" encoding="UTF-8"?>
<svg width="22px" height="17px" viewBox="0 0 22 17" version="1.1" xmlns="http://www.w3.org/2000/svg" xmlns:xlink="http://www.w3.org/1999/xlink">
    <title>Icon</title>
    <defs>
        <path d="M21,4 L3,4 C1.9,4 1,4.9 1,6 L1,19 C1,20.1 1.9,21 3,21 L21,21 C22.1,21 23,20.1 23,19 L23,6 C23,4.9 22.1,4 21,4 Z M10.6631844,14 L13.3368156,14 C13.1208455,13.5453723 13,13.0367986 13,12.5 C13,10.5670034 14.5670034,9 16.5,9 C18.4329966,9 20,10.5670034 20,12.5 C20,14.4329966 18.4329966,16 16.5,16 L7.5,16 C5.56700338,16 4,14.4329966 4,12.5 C4,10.5670034 5.56700338,9 7.5,9 C9.43299662,9 11,10.5670034 11,12.5 C11,13.0367986 10.8791545,13.5453723 10.6631844,14 L10.6631844,14 Z M7.5,14 C8.32842712,14 9,13.3284271 9,12.5 C9,11.6715729 8.32842712,11 7.5,11 C6.67157288,11 6,11.6715729 6,12.5 C6,13.3284271 6.67157288,14 7.5,14 Z M16.5,14 C17.3284271,14 18,13.3284271 18,12.5 C18,11.6715729 17.3284271,11 16.5,11 C15.6715729,11 15,11.6715729 15,12.5 C15,13.3284271 15.6715729,14 16.5,14 Z" id="path-1"></path>
    </defs>
    <g id="Page-1" stroke="none" stroke-width="1" fill="none" fill-rule="evenodd">
        <g id="Recordings-1" transform="translate(-445.000000, -468.000000)">
            <g id="Icon" transform="translate(444.000000, 464.000000)">
                <mask id="mask-2" fill="white">
                    <use xlink:href="#path-1"></use>
                </mask>
                <use id="Color" fill="#3e048b" fill-rule="nonzero" xlink:href="#path-1"></use>
            </g>
        </g>
    </g>
</svg>